<?xml version="1.0" encoding="UTF-8"?>
<svg width="144px" height="151px" viewBox="0 0 144 151" version="1.1" xmlns="http://www.w3.org/2000/svg" xmlns:xlink="http://www.w3.org/1999/xlink">
    <!-- Generator: Sketch 43.2 (39069) - http://www.bohemiancoding.com/sketch -->
    <title>Group 32 Copy 4</title>
    <desc>Created with Sketch.</desc>
    <defs></defs>
    <g id="Page-1" stroke="none" stroke-width="1" fill="none" fill-rule="evenodd">
        <g id="Group-32-Copy-4" transform="translate(3.000000, 7.000000)">
            <path d="M112.384271,95.4174007 C88.3269163,96.7110395 69.0933911,117.85671 69.0933911,143.725643 C68.8763396,117.863338 49.7055494,96.7554361 25.5158166,95.2350598 L25.2291221,45.0358566 C9.80382607,36.6818694 0,23.6660319 0,9.09909839 C0,6.2048881 0.387007598,3.37190756 0.860083707,0.28685259 C7.39848366,10.0416101 17.5652832,18.0110996 30.1227455,23.4353635 C37.3412053,9.60104441 51.9784721,0 68.8569477,0 C85.8029222,0 100.489726,9.67798937 107.69745,23.811181 C120.369914,18.1699607 130.770555,10.0408874 137.219122,0.311120413 C138.081866,3.33830993 138.473477,6.18772511 138.473477,9.09909839 C138.473477,23.9628885 128.265999,37.2117196 112.34041,45.8045308 L112.384271,95.4174007 Z" id="Path" stroke="#333333" stroke-width="5"></path>
            <ellipse id="Oval-15-Copy-7" fill="#333333" cx="69.0868377" cy="50.0896414" rx="5.08683767" ry="5.08964143"></ellipse>
            <path d="M69,51 L69,141.017754" id="Line-Copy-8" stroke="#333333" stroke-width="2" stroke-linecap="square"></path>
        </g>
    </g>
</svg>